<svg width="14" height="14" viewBox="0 0 14 14" fill="none" xmlns="http://www.w3.org/2000/svg">
<path d="M10.7905 11.6462V4.41H5.22988V11.6462H10.7905ZM10.7905 3.395C11.0661 3.395 11.3059 3.493 11.508 3.69162C11.711 3.89025 11.8125 4.12912 11.8125 4.41V11.6462C11.8125 11.9271 11.711 12.1712 11.508 12.3777C11.4163 12.4762 11.3052 12.5545 11.1817 12.6078C11.0582 12.6611 10.925 12.6883 10.7905 12.6875H5.22988C4.95338 12.6875 4.71362 12.5842 4.51238 12.3777C4.41472 12.2828 4.33732 12.169 4.28484 12.0432C4.23235 11.9175 4.20587 11.7825 4.207 11.6462V4.41C4.207 4.13 4.3085 3.89025 4.5115 3.69162C4.7145 3.493 4.95338 3.39412 5.229 3.39412H10.7905V3.395ZM9.26975 1.3125V2.35375H3.185V9.59H2.1875V2.35375C2.1875 2.07287 2.28462 1.82875 2.47975 1.62225C2.674 1.41575 2.90938 1.3125 3.185 1.3125H9.26975Z" fill="#283950"/>
</svg>
