<svg width="18" height="18" viewBox="0 0 18 18" fill="none" xmlns="http://www.w3.org/2000/svg">
<path d="M13.8735 14.9738V5.67H6.72412V14.9738H13.8735ZM13.8735 4.365C14.2279 4.365 14.5361 4.491 14.796 4.74638C15.057 5.00175 15.1875 5.30887 15.1875 5.67V14.9738C15.1875 15.3349 15.057 15.6488 14.796 15.9142C14.6781 16.0408 14.5353 16.1415 14.3765 16.2101C14.2177 16.2786 14.0464 16.3135 13.8735 16.3125H6.72412C6.36862 16.3125 6.06037 16.1797 5.80162 15.9142C5.67607 15.7921 5.57655 15.6458 5.50907 15.4842C5.44159 15.3225 5.40755 15.1489 5.409 14.9738V5.67C5.409 5.31 5.5395 5.00175 5.8005 4.74638C6.0615 4.491 6.36862 4.36387 6.723 4.36387H13.8735V4.365ZM11.9182 1.6875V3.02625H4.095V12.33H2.8125V3.02625C2.8125 2.66513 2.93737 2.35125 3.18825 2.08575C3.438 1.82025 3.74062 1.6875 4.095 1.6875H11.9182Z" fill="white"/>
</svg>
