<svg width="16" height="16" viewBox="0 0 16 16" fill="none" xmlns="http://www.w3.org/2000/svg">
<path d="M4.03317 2.76003L3.77317 2.50003C3.51317 2.24003 3.09317 2.2467 2.83984 2.50003L2.83317 2.5067C2.57317 2.7667 2.57317 3.1867 2.83317 3.44003L3.09317 3.70003C3.35317 3.96003 3.7665 3.96003 4.0265 3.70003L4.03317 3.69337C4.29317 3.44003 4.29317 3.01337 4.03317 2.76003ZM2.0065 7.00003H1.3265C0.959837 7.00003 0.666504 7.29337 0.666504 7.66003V7.6667C0.666504 8.03337 0.959837 8.3267 1.3265 8.3267H1.99984C2.37317 8.33337 2.6665 8.04003 2.6665 7.67337V7.6667C2.6665 7.29337 2.37317 7.00003 2.0065 7.00003ZM8.0065 0.366699H7.99984C7.6265 0.366699 7.33317 0.660033 7.33317 1.0267V1.6667C7.33317 2.03337 7.6265 2.3267 7.99317 2.3267H7.99984C8.37317 2.33337 8.6665 2.04003 8.6665 1.67337V1.0267C8.6665 0.660033 8.37317 0.366699 8.0065 0.366699ZM13.1665 2.5067C12.9065 2.2467 12.4865 2.2467 12.2265 2.50003L11.9665 2.76003C11.7065 3.02003 11.7065 3.44003 11.9665 3.69337L11.9732 3.70003C12.2332 3.96003 12.6532 3.96003 12.9065 3.70003L13.1665 3.44003C13.4265 3.18003 13.4265 2.7667 13.1665 2.5067ZM11.9598 12.5734L12.2198 12.8334C12.4798 13.0934 12.8998 13.0934 13.1598 12.8334C13.4198 12.5734 13.4198 12.1534 13.1598 11.8934L12.8998 11.6334C12.6398 11.3734 12.2198 11.38 11.9665 11.6334C11.6998 11.9 11.6998 12.3134 11.9598 12.5734ZM13.3332 7.66003V7.6667C13.3332 8.03337 13.6265 8.3267 13.9932 8.3267H14.6665C15.0332 8.3267 15.3265 8.03337 15.3265 7.6667V7.66003C15.3265 7.29337 15.0332 7.00003 14.6665 7.00003H13.9932C13.6265 7.00003 13.3332 7.29337 13.3332 7.66003ZM7.99984 3.6667C5.79317 3.6667 3.99984 5.46003 3.99984 7.6667C3.99984 9.87337 5.79317 11.6667 7.99984 11.6667C10.2065 11.6667 11.9998 9.87337 11.9998 7.6667C11.9998 5.46003 10.2065 3.6667 7.99984 3.6667ZM7.99317 14.9667H7.99984C8.3665 14.9667 8.65984 14.6734 8.65984 14.3067V13.6667C8.65984 13.3 8.3665 13.0067 7.99984 13.0067H7.99317C7.6265 13.0067 7.33317 13.3 7.33317 13.6667V14.3067C7.33317 14.6734 7.6265 14.9667 7.99317 14.9667ZM2.83317 12.8267C3.09317 13.0867 3.51317 13.0867 3.77317 12.8267L4.03317 12.5667C4.29317 12.3067 4.2865 11.8867 4.03317 11.6334L4.0265 11.6267C3.7665 11.3667 3.3465 11.3667 3.0865 11.6267L2.8265 11.8867C2.57317 12.1534 2.57317 12.5667 2.83317 12.8267Z" fill="white"/>
</svg>
