<svg width="68" height="68" viewBox="0 0 68 68" fill="none" xmlns="http://www.w3.org/2000/svg">
    <path opacity="0.2" d="M66.0072 30.8897C67.0198 30.7913 67.7659 29.8895 67.6129 28.8838C66.6397 22.4899 63.8603 16.4922 59.5838 11.6065C54.9021 6.25786 48.6619 2.51101 41.7403 0.89279C34.8188 -0.725434 27.5641 -0.133649 20.9964 2.58494C14.4286 5.30353 8.87807 10.0122 5.12514 16.0489C1.37221 22.0856 -0.394356 29.1467 0.0738322 36.2394C0.542021 43.3322 3.22141 50.0998 7.73528 55.5908C12.2492 61.0819 18.3705 65.0201 25.2386 66.8518C31.5122 68.5249 38.1207 68.3636 44.2852 66.407C45.2548 66.0993 45.7333 65.0311 45.3735 64.0796C45.0137 63.128 43.952 62.6541 42.9804 62.9554C37.5383 64.6433 31.7172 64.7669 26.1879 63.2922C20.064 61.659 14.6059 58.1475 10.5811 53.2514C6.55632 48.3554 4.16725 42.321 3.74979 35.9968C3.33233 29.6726 4.90748 23.3765 8.25378 17.9939C11.6001 12.6113 16.5492 8.41284 22.4053 5.98881C28.2615 3.56479 34.7301 3.03712 40.9016 4.48001C47.0732 5.9229 52.6374 9.26377 56.8118 14.0329C60.5809 18.3389 63.0458 23.6138 63.9402 29.2409C64.0999 30.2456 64.9947 30.988 66.0072 30.8897Z" fill="#225CFF"/>
    <path opacity="0.2" d="M63.332 34C65.9101 34 68.0329 31.9004 67.6801 29.3466C67.2476 26.2165 66.3798 23.1544 65.0959 20.2506C63.1809 15.9197 60.3824 12.0365 56.8796 8.84995C53.3768 5.66338 49.247 3.24364 44.7547 1.74577C40.2625 0.247893 35.5069 -0.295087 30.7927 0.151618C26.0784 0.598323 21.5094 2.02486 17.3785 4.33983C13.2475 6.65481 9.64573 9.80717 6.8038 13.5949C3.96186 17.3827 1.9425 21.7224 0.875068 26.3359C0.159375 29.4291 -0.117792 32.5998 0.0453434 35.7554C0.178445 38.33 2.65786 39.9935 5.19004 39.5093C7.72223 39.0251 9.33519 36.5702 9.33601 33.9922C9.3366 32.1285 9.54843 30.2658 9.97079 28.4404C10.7451 25.0937 12.21 21.9456 14.2716 19.1979C16.3331 16.4502 18.9459 14.1635 21.9426 12.4842C24.9392 10.8049 28.2536 9.77004 31.6734 9.44599C35.0931 9.12195 38.5429 9.51583 41.8016 10.6024C45.0603 11.689 48.0561 13.4443 50.5971 15.7559C53.1381 18.0674 55.1682 20.8843 56.5573 24.026C57.315 25.7397 57.8729 27.5294 58.2236 29.3598C58.7086 31.8918 60.7539 34 63.332 34Z" fill="#225CFF"/>
    <path opacity="0.2" d="M62.6793 34C65.6179 34 68.0425 31.6036 67.5845 28.7009C67.0784 25.4933 66.114 22.3656 64.7132 19.4157C62.5491 14.8583 59.3979 10.8397 55.4881 7.65117C51.5784 4.46265 47.008 2.1842 42.1085 0.981026C38.9371 0.202235 35.6793 -0.113409 32.4355 0.0360151C29.5 0.171232 27.6403 3.02837 28.2314 5.90685C28.8224 8.78533 31.6524 10.5746 34.59 10.6488C36.2642 10.6911 37.9342 10.9135 39.5707 11.3154C42.9367 12.142 46.0767 13.7073 48.7627 15.8979C51.4488 18.0884 53.6137 20.8493 55.1005 23.9803C55.8233 25.5025 56.3771 27.0936 56.7553 28.7252C57.4188 31.5878 59.7408 34 62.6793 34Z" fill="#225CFF"/>
    <path d="M64.1489 34C66.2758 34 68.0226 32.2702 67.7822 30.1569C67.1212 24.3465 64.9694 18.7814 61.5066 14.0153C58.0439 9.24922 53.4161 5.48298 48.0943 3.05885C46.1587 2.17715 43.9738 3.30392 43.3166 5.32678C42.6593 7.34965 43.7839 9.49765 45.6892 10.4431C49.4745 12.3214 52.7693 15.0935 55.2753 18.5427C57.7812 21.9918 59.3995 25.982 60.0162 30.1624C60.3266 32.2666 62.0219 34 64.1489 34Z" fill="#225CFF"/>
</svg>
