<?xml version="1.0" encoding="UTF-8"?>
<svg width="12px" height="12px" viewBox="0 0 12 12" version="1.1" xmlns="http://www.w3.org/2000/svg" xmlns:xlink="http://www.w3.org/1999/xlink">
    <!-- Generator: Sketch 53 (72520) - https://sketchapp.com -->
    <title>info</title>
    <desc>Created with Sketch.</desc>
    <g id="Page-1" stroke="none" stroke-width="1" fill="none" fill-rule="evenodd">
        <g id="Blockexplorer-_-Address" transform="translate(-633.000000, -1689.000000)" fill="#FFFFFF" fill-rule="nonzero">
            <path d="M638.426,1693.35 L638.426,1692.174 L639.574,1692.174 L639.574,1693.35 L638.426,1693.35 Z M639,1699.776 C639.840004,1699.776 640.623996,1699.56134 641.352,1699.132 C642.061337,1698.72133 642.621331,1698.16134 643.032,1697.452 C643.461335,1696.724 643.676,1695.94 643.676,1695.1 C643.676,1694.26 643.461335,1693.476 643.032,1692.748 C642.621331,1692.03866 642.061337,1691.47867 641.352,1691.068 C640.623996,1690.63866 639.840004,1690.424 639,1690.424 C638.159996,1690.424 637.376004,1690.63866 636.648,1691.068 C635.938663,1691.47867 635.378669,1692.03866 634.968,1692.748 C634.538665,1693.476 634.324,1694.26 634.324,1695.1 C634.324,1695.94 634.538665,1696.724 634.968,1697.452 C635.378669,1698.16134 635.938663,1698.72133 636.648,1699.132 C637.376004,1699.56134 638.159996,1699.776 639,1699.776 Z M639,1689.276 C640.064005,1689.276 641.048662,1689.542 641.954,1690.074 C642.831338,1690.578 643.521997,1691.26866 644.026,1692.146 C644.558003,1693.05134 644.824,1694.03599 644.824,1695.1 C644.824,1696.16401 644.558003,1697.14866 644.026,1698.054 C643.521997,1698.93134 642.831338,1699.622 641.954,1700.126 C641.048662,1700.658 640.064005,1700.924 639,1700.924 C637.935995,1700.924 636.951338,1700.658 636.046,1700.126 C635.168662,1699.61266 634.478003,1698.91734 633.974,1698.04 C633.441997,1697.13466 633.176,1696.15467 633.176,1695.1 C633.176,1694.04533 633.441997,1693.06534 633.974,1692.16 C634.487336,1691.28266 635.182662,1690.58734 636.06,1690.074 C636.965338,1689.542 637.945328,1689.276 639,1689.276 Z M638.426,1698.026 L638.426,1694.526 L639.574,1694.526 L639.574,1698.026 L638.426,1698.026 Z" id="info"></path>
        </g>
    </g>
</svg>