<?xml version="1.0" encoding="UTF-8"?>
<svg width="100px" height="21px" viewBox="0 0 100 21" version="1.1" xmlns="http://www.w3.org/2000/svg" xmlns:xlink="http://www.w3.org/1999/xlink">
    <!-- Generator: Sketch 53 (72520) - https://sketchapp.com -->
    <title>logo_ess</title>
    <desc>Created with Sketch.</desc>
    <g id="Page-1" stroke="none" stroke-width="1" fill="none" fill-rule="evenodd">
        <g id="Blockexplorer-_-Address" transform="translate(-230.000000, -1683.000000)" fill="#FFFFFF" fill-rule="nonzero">
            <g id="logo_ess" transform="translate(230.000000, 1683.000000)">
                <path d="M10.5020699,1.27240833e-07 C6.14614293,0.00269178087 2.24347961,2.68269785 0.690741623,6.73755783 C-0.861996368,10.7924178 0.257148437,15.3813637 3.50428103,18.2742061 C6.75141362,21.1670486 11.4532468,21.7639619 15.324729,19.7748512 L15.324729,19.7837874 L20.2765426,17.4291065 L20.2765426,15.0163406 L20.1958211,14.8474469 L19.9993989,14.9368086 L20.0056772,14.9234044 L14.2018038,17.6837874 L14.2018038,17.6837874 C10.3651301,19.6420663 5.66131704,18.2745296 3.4837868,14.5677448 L6.21486309,13.2684257 C7.65575324,15.4245418 10.4876489,16.1659138 12.8062193,14.9940001 L18.3562686,12.4641703 L18.3562686,12.4757874 L20.2837178,11.5893193 L20.2837178,6.63868098 C18.70269,2.6329417 14.8222433,-0.000668384723 10.5020699,1.27240833e-07 Z M12.4124779,11.4517023 L10.9890894,12.0825959 L7.81045741,9.842298 L14.2977726,7.00685119 C12.7254927,5.26817735 10.1691519,4.81493321 8.09137501,5.906445 C6.01359815,6.99795678 4.94477633,9.35559587 5.49644204,11.6304257 L2.74922146,12.9360001 C1.43874473,8.84547105 3.55640276,4.44630116 7.57842785,2.90392744 C11.6004529,1.36155373 16.1319653,3.2108873 17.9123005,7.12123417 L17.9123005,8.99782991 L12.4124779,11.4517023 Z" id="Logo"></path>
                <path d="M33.1193279,13.2112342 L35.152612,13.2112342 C35.000736,14.1644257 34.4987681,14.9436597 33.6467082,15.5489363 C32.7946482,16.1542129 31.7679908,16.4565533 30.5667357,16.4559576 C29.0186774,16.4559576 27.792907,15.9707235 26.8894245,15.0002554 C25.985942,14.0297874 25.5350977,12.7114044 25.5368915,11.0451065 C25.5368915,9.3770214 25.9853441,8.04374481 26.8822493,7.04527672 C27.7791544,6.04680864 28.9765229,5.54668098 30.4743545,5.54489374 C31.9434852,5.54489374 33.1076681,6.01731928 33.9669033,6.96217034 C34.8261385,7.9070214 35.2557561,9.18608523 35.2557561,10.7993618 L35.2557561,11.5446384 L27.6975361,11.5446384 L27.6975361,11.6724257 C27.6975361,12.5934469 27.963319,13.3336597 28.4948848,13.893064 C29.0264506,14.4524682 29.7314181,14.7318725 30.6097872,14.7312767 C31.1759202,14.7463031 31.7350302,14.6036338 32.2242165,14.3193193 C32.6519837,14.0754314 32.9716425,13.6797162 33.1193279,13.2112342 L33.1193279,13.2112342 Z M30.4725607,7.280298 C29.7048099,7.280298 29.0668113,7.53527672 28.558565,8.04523417 C28.0503188,8.55519162 27.7668967,9.21825545 27.7082989,10.0344257 L33.1300908,10.0344257 C33.1031836,9.20395757 32.8472667,8.53731928 32.3623399,8.03451077 C31.8774132,7.53170225 31.2474868,7.280298 30.4725607,7.280298 Z" id="Shape"></path>
                <path d="M36.7993299,8.71187247 C36.7993299,7.77714906 37.1829063,7.01727672 37.9500592,6.43225545 C38.7172121,5.84723417 39.7142717,5.55472353 40.941238,5.55472353 C42.1090086,5.55472353 43.0749754,5.85051077 43.8391387,6.44208523 C44.6033019,7.0336597 44.9985381,7.79353204 45.0248473,8.72170225 L43.0175735,8.72170225 C42.9839946,8.27220738 42.7491357,7.86164458 42.3780801,7.60378736 C41.9977923,7.32974481 41.5027007,7.19242566 40.8928051,7.19182991 C40.2829096,7.19123417 39.7955911,7.32051077 39.4308497,7.5796597 C39.0607268,7.83821289 38.8753664,8.176298 38.8747685,8.59391502 C38.8747685,9.23434055 39.4290559,9.68859587 40.5376307,9.95668098 L42.3090184,10.3784682 C43.3853046,10.6394044 44.1461792,10.9858299 44.5916421,11.4177448 C45.037105,11.8496597 45.2601354,12.4573193 45.2607334,13.2407235 C45.2607334,14.1891491 44.8508477,14.9636171 44.0310764,15.5641278 C43.211305,16.1646384 42.1550497,16.4625108 40.8623104,16.4577448 C39.6227874,16.4577448 38.6062949,16.1652342 37.8128327,15.5802129 C37.0487319,15.0412948 36.5695524,14.1875813 36.5087326,13.2568086 L38.614666,13.2568086 C38.679514,13.7337631 38.9462538,14.1602182 39.3474375,14.4283406 C39.7510448,14.7000001 40.2906828,14.835532 40.9663514,14.8349363 C41.6288653,14.8349363 42.1553487,14.7074469 42.5458014,14.4524682 C42.9362541,14.1974895 43.1326763,13.8525533 43.1350681,13.4176597 C43.1499343,13.1102291 43.0211061,12.8132616 42.786172,12.6134044 C42.5529766,12.4174044 42.1544518,12.2473193 41.5905974,12.1031491 L39.6819831,11.6331065 C37.7602143,11.163064 36.7993299,10.1893193 36.7993299,8.71187247 Z" id="Shape"></path>
                <path d="M46.8123794,8.71187247 C46.8123794,7.77714906 47.1962548,7.01727672 47.9640056,6.43225545 C48.7317564,5.84723417 49.728816,5.55472353 50.9551844,5.55472353 C52.1229549,5.55472353 53.0889218,5.85051077 53.853085,6.44208523 C54.6172483,7.0336597 55.0124845,7.79353204 55.0387937,8.72170225 L53.0342106,8.72170225 C53.0002553,8.27232188 52.7654821,7.86190887 52.3947172,7.60378736 C52.0138315,7.32974481 51.5184409,7.19242566 50.9085453,7.19182991 C50.2986498,7.19123417 49.8116303,7.32051077 49.4474868,7.5796597 C49.076766,7.83821289 48.8914056,8.176298 48.8914056,8.59391502 C48.8914056,9.23434055 49.445693,9.68859587 50.5542678,9.95668098 L52.3256555,10.3784682 C53.4019417,10.6394044 54.1628163,10.9858299 54.6082792,11.4177448 C55.0537421,11.8496597 55.2767725,12.4573193 55.2773705,13.2407235 C55.2773705,14.1891491 54.8674848,14.9636171 54.0477135,15.5641278 C53.2279421,16.1646384 52.1716868,16.4625108 50.8789475,16.4577448 C49.6394245,16.4577448 48.622932,16.1652342 47.8294698,15.5802129 C47.0650738,15.0415593 46.5858087,14.1876934 46.5253697,13.2568086 L48.6313031,13.2568086 C48.6958174,13.7338828 48.9626359,14.1604639 49.3640746,14.4283406 C49.7676819,14.7000001 50.305825,14.835532 50.9785039,14.8349363 C51.64042,14.8349363 52.1666043,14.7074469 52.5570571,14.4524682 C52.9475098,14.1974895 53.1427361,13.8546384 53.1427361,13.423915 C53.1571911,13.1165591 53.0284378,12.8197642 52.79384,12.6196597 C52.5606447,12.4236597 52.1621198,12.2535746 51.5982654,12.1094044 L49.6896512,11.6393618 C47.77147,11.1651491 46.8123794,10.1893193 46.8123794,8.71187247 Z" id="Shape"></path>
                <path d="M64.1029175,13.2112342 L66.1397892,13.2112342 C65.9891091,14.1644257 65.4874401,14.9436597 64.6347823,15.5489363 C63.7821244,16.1542129 62.7554669,16.4565533 61.5548099,16.4559576 C60.0067515,16.4559576 58.7809811,15.9707235 57.8774986,15.0002554 C56.9740161,14.0297874 56.5231718,12.7114044 56.5249656,11.0451065 C56.5249656,9.3770214 56.9734182,8.04374481 57.8703234,7.04527672 C58.7672286,6.04680864 59.9631021,5.54668098 61.4579441,5.54489374 C62.9270748,5.54489374 64.0930515,6.01731928 64.9558743,6.96217034 C65.8186971,7.9070214 66.2483147,9.18608523 66.2447271,10.7993618 L66.2447271,11.5446384 L58.6820226,11.5446384 L58.6820226,11.6724257 C58.6820226,12.5934469 58.9475065,13.3336597 59.4784744,13.893064 C60.0094422,14.4524682 60.7147087,14.7318725 61.5942737,14.7312767 C62.1603691,14.7459713 62.7193895,14.6033249 63.208703,14.3193193 C63.6359566,14.0750562 63.9552145,13.6794409 64.1029175,13.2112342 L64.1029175,13.2112342 Z M61.4561503,7.280298 C60.6883995,7.280298 60.0504009,7.53527672 59.5421546,8.04523417 C59.0339084,8.55519162 58.7501874,9.21825545 58.6909916,10.0344257 L64.1127835,10.0344257 C64.0870722,9.20395757 63.8311552,8.53731928 63.3450326,8.03451077 C62.85891,7.53170225 62.2292826,7.280298 61.4561503,7.280298 Z" id="Shape"></path>
                <path d="M67.9596098,16.329064 L67.9596098,5.68251077 L69.9964815,5.68251077 L69.9964815,7.47600013 L70.0359453,7.47600013 C70.6978613,6.20289374 71.8557659,5.56634055 73.5096591,5.56634055 C74.6899863,5.56634055 75.619778,5.91782991 76.2990342,6.62080864 C76.9782904,7.32378736 77.3176195,8.28591502 77.3170216,9.50719162 L77.3170224,16.3308512 L75.1823872,16.3308512 L75.1823872,9.90753204 C75.1823872,9.09731928 74.9758001,8.47476608 74.5626258,8.03987247 C74.1494514,7.60497885 73.5515146,7.38782991 72.7688154,7.38842566 C71.9616007,7.38842566 71.3137362,7.64489374 70.8252219,8.15782991 C70.3367075,8.67076608 70.0924503,9.34544694 70.0924503,10.1818725 L70.0924503,16.329064 L67.9596098,16.329064 Z" id="Shape"></path>
                <path d="M80.0920462,3.290298 L82.2168146,3.290298 L82.2168146,5.68251077 L84.2635522,5.68251077 L84.2635522,7.3589363 L82.2168146,7.3589363 L82.2168146,13.309532 C82.2168146,13.7730214 82.3235463,14.1143831 82.5370097,14.3336171 C82.7504732,14.5528512 83.0793384,14.6624682 83.5236055,14.6624682 C83.7669368,14.663448 84.010025,14.6470228 84.2509956,14.6133193 L84.2509956,16.2897448 C83.85647,16.3715129 83.4537693,16.4074971 83.0509364,16.3969789 C81.9818254,16.3969789 81.2209509,16.1765533 80.7683127,15.7357023 C80.3156746,15.2948512 80.0893555,14.557915 80.0893555,13.5248937 L80.0893555,7.3589363 L78.6157403,7.3589363 L78.6157403,5.68251077 L80.0920462,5.68251077 L80.0920462,3.290298 Z" id="Shape"></path>
                <path d="M88.1014095,3.8050214 C87.6083907,4.28299956 86.8230406,4.28299956 86.3300218,3.8050214 C86.092329,3.57915698 85.9602921,3.26453195 85.9658783,2.93731928 C85.9584695,2.60845737 86.090699,2.29175097 86.3300218,2.06514906 C86.8260331,1.59456749 87.6053982,1.59456749 88.1014095,2.06514906 C88.3403567,2.2920082 88.4725139,2.60854144 88.465553,2.93731928 C88.4707001,3.26444788 88.3387338,3.57890461 88.1014095,3.8050214 L88.1014095,3.8050214 Z M86.1434655,16.329064 L86.1434655,5.68251077 L88.2780998,5.68251077 L88.2780998,16.329064 L86.1434655,16.329064 Z" id="Shape"></path>
                <path d="M93.6801598,16.436298 C92.6110488,16.436298 91.7419477,16.147064 91.0728564,15.5685959 C90.4037651,14.9901278 90.0692195,14.2272767 90.0692195,13.2800427 C90.0692195,12.3518725 90.4184146,11.6232767 91.1168047,11.0942554 C91.8151949,10.5652342 92.826904,10.2578299 94.1519319,10.1720427 L97.0354821,10.0058299 L97.0354821,9.18191502 C97.0354821,8.57425545 96.8402557,8.10868098 96.449803,7.78519162 C96.0593502,7.46170225 95.5065577,7.29995757 94.7914253,7.29995757 C94.2150142,7.29995757 93.7279947,7.43727672 93.3303667,7.71191502 C92.9461507,7.96732891 92.6818755,8.36663922 92.5975952,8.81910651 L90.6001874,8.81910651 C90.6336718,7.87782991 91.0501348,7.09710651 91.8495763,6.4769363 C92.6490178,5.85676608 93.649366,5.54608523 94.850621,5.54489374 C96.156515,5.54489374 97.1978219,5.86182991 97.9745418,6.49570225 C98.7512617,7.1295746 99.1399206,7.97285119 99.1405185,9.02553204 L99.1405185,16.329064 L97.1036468,16.329064 L97.1036468,14.5543406 L97.055214,14.5543406 C96.750819,15.1382918 96.2761832,15.6167951 95.6937119,15.9269363 C95.0781255,16.2675905 94.384291,16.4431076 93.6801598,16.436298 L93.6801598,16.436298 Z M94.2505915,14.7384257 C95.0440536,14.7384257 95.7065675,14.5114469 96.2381333,14.0574895 C96.7561165,13.6331353 97.0500218,12.9954361 97.0354821,12.3274469 L97.0354821,11.4937023 L94.434457,11.6724257 C92.959347,11.7635746 92.221493,12.2863406 92.220895,13.2407235 C92.2087533,13.6742265 92.4159824,14.0848151 92.7724917,14.3336171 C93.1408208,14.6052767 93.6335207,14.7408086 94.2505915,14.7402129 L94.2505915,14.7384257 Z" id="Shape"></path>
            </g>
        </g>
    </g>
</svg>