<?xml version="1.0" encoding="UTF-8"?>
<svg width="18px" height="18px" viewBox="0 0 18 18" version="1.1" xmlns="http://www.w3.org/2000/svg" xmlns:xlink="http://www.w3.org/1999/xlink">
    <!-- Generator: Sketch 53 (72520) - https://sketchapp.com -->
    <title>Shape</title>
    <desc>Created with Sketch.</desc>
    <g id="Page-1" stroke="none" stroke-width="1" fill="none" fill-rule="evenodd">
        <g id="Blockexplorer-_-Status_iPhone-SE-" transform="translate(-245.000000, -18.000000)" fill="#5BA0FF" fill-rule="nonzero">
            <g id="magnifying-glass-search-copy-3" transform="translate(245.000000, 18.000000)">
                <path d="M17.773468,15.4661421 L13.4513866,11.0139707 C13.1414564,10.6945551 12.7540968,10.5666724 12.5862799,10.729981 C12.4178788,10.8921247 12.0302537,10.7645597 11.7203235,10.4451442 L11.6585074,10.3812293 C13.5929157,7.84438594 13.4051838,4.21219943 11.0822476,1.89596037 C8.54699111,-0.63198679 4.43638017,-0.63198679 1.90144235,1.89596037 C-0.633814115,4.42390753 -0.633814115,8.52208484 1.90144235,11.050032 C4.263943,13.4060391 7.99271742,13.5638406 10.5421002,11.5289964 L10.5692377,11.5572206 C10.8785837,11.8766361 10.9938251,12.2669034 10.8248929,12.4293118 C10.6567574,12.5917732 10.771149,12.9823052 11.0813979,13.3011383 L15.4011426,17.7550572 C15.7110728,18.0736254 16.221746,18.0831041 16.5424037,17.7738027 L17.7547214,16.6041658 C18.0741576,16.2956058 18.082814,15.7867226 17.773468,15.4661421 Z M10.0457792,10.0451592 C8.07968271,12.0115039 4.88025744,12.0115039 2.91446017,10.0458175 C0.948363663,8.07977207 0.948662898,4.88007083 2.91446017,2.91438447 C4.88025744,0.948339036 8.07968271,0.948638264 10.0451209,2.9146837 C12.0115166,4.8804299 12.0115166,8.07947284 10.0457792,10.0451592 Z" id="Shape"></path>
            </g>
        </g>
    </g>
</svg>